<?xml version="1.0" encoding="utf-8"?>
<!-- Generator: Adobe Illustrator 21.0.2, SVG Export Plug-In . SVG Version: 6.00 Build 0)  -->
<svg version="1.1" id="Layer_1" xmlns="http://www.w3.org/2000/svg" xmlns:xlink="http://www.w3.org/1999/xlink" x="0px" y="0px"
	 viewBox="0 0 100 100" style="enable-background:new 0 0 100 100;" xml:space="preserve">
<g>
	<path d="M65,5H15C9.5,5,5,9.5,5,15v70c0,5.5,4.5,10,10,10h50c5.5,0,10-4.5,10-10V15C75,9.5,70.5,5,65,5z M71,85c0,3.3-2.7,6-6,6H15
		c-3.3,0-6-2.7-6-6V15c0-3.3,2.7-6,6-6h50c3.3,0,6,2.7,6,6V85z"/>
	<path d="M59,13H21c-3.3,0-6,2.7-6,6v8c0,3.3,2.7,6,6,6h38c3.3,0,6-2.7,6-6v-8C65,15.7,62.3,13,59,13z M61,27c0,1.1-0.9,2-2,2H21
		c-1.1,0-2-0.9-2-2v-8c0-1.1,0.9-2,2-2h38c1.1,0,2,0.9,2,2V27z"/>
	<path d="M59,55h-2c-3.3,0-6,2.7-6,6v20c0,3.3,2.7,6,6,6h2c3.3,0,6-2.7,6-6V61C65,57.7,62.3,55,59,55z M61,81c0,1.1-0.9,2-2,2h-2
		c-1.1,0-2-0.9-2-2V61c0-1.1,0.9-2,2-2h2c1.1,0,2,0.9,2,2V81z"/>
	<path d="M23,37h-2c-3.3,0-6,2.7-6,6v2c0,3.3,2.7,6,6,6h2c3.3,0,6-2.7,6-6v-2C29,39.7,26.3,37,23,37z M25,45c0,1.1-0.9,2-2,2h-2
		c-1.1,0-2-0.9-2-2v-2c0-1.1,0.9-2,2-2h2c1.1,0,2,0.9,2,2V45z"/>
	<path d="M41,37h-2c-3.3,0-6,2.7-6,6v2c0,3.3,2.7,6,6,6h2c3.3,0,6-2.7,6-6v-2C47,39.7,44.3,37,41,37z M43,45c0,1.1-0.9,2-2,2h-2
		c-1.1,0-2-0.9-2-2v-2c0-1.1,0.9-2,2-2h2c1.1,0,2,0.9,2,2V45z"/>
	<path d="M23,55h-2c-3.3,0-6,2.7-6,6v2c0,3.3,2.7,6,6,6h2c3.3,0,6-2.7,6-6v-2C29,57.7,26.3,55,23,55z M25,63c0,1.1-0.9,2-2,2h-2
		c-1.1,0-2-0.9-2-2v-2c0-1.1,0.9-2,2-2h2c1.1,0,2,0.9,2,2V63z"/>
	<path d="M41,55h-2c-3.3,0-6,2.7-6,6v2c0,3.3,2.7,6,6,6h2c3.3,0,6-2.7,6-6v-2C47,57.7,44.3,55,41,55z M43,63c0,1.1-0.9,2-2,2h-2
		c-1.1,0-2-0.9-2-2v-2c0-1.1,0.9-2,2-2h2c1.1,0,2,0.9,2,2V63z"/>
	<path d="M23,73h-2c-3.3,0-6,2.7-6,6v2c0,3.3,2.7,6,6,6h2c3.3,0,6-2.7,6-6v-2C29,75.7,26.3,73,23,73z M25,81c0,1.1-0.9,2-2,2h-2
		c-1.1,0-2-0.9-2-2v-2c0-1.1,0.9-2,2-2h2c1.1,0,2,0.9,2,2V81z"/>
	<path d="M41,73h-2c-3.3,0-6,2.7-6,6v2c0,3.3,2.7,6,6,6h2c3.3,0,6-2.7,6-6v-2C47,75.7,44.3,73,41,73z M43,81c0,1.1-0.9,2-2,2h-2
		c-1.1,0-2-0.9-2-2v-2c0-1.1,0.9-2,2-2h2c1.1,0,2,0.9,2,2V81z"/>
	<path d="M59,37h-2c-3.3,0-6,2.7-6,6v2c0,3.3,2.7,6,6,6h2c3.3,0,6-2.7,6-6v-2C65,39.7,62.3,37,59,37z M61,45c0,1.1-0.9,2-2,2h-2
		c-1.1,0-2-0.9-2-2v-2c0-1.1,0.9-2,2-2h2c1.1,0,2,0.9,2,2V45z"/>
	<path d="M88,5c-3.9,0-7,3.1-7,7v63.6c0,6.5,1.8,12.9,5.3,18.5c0.4,0.6,1,0.9,1.7,0.9s1.3-0.4,1.7-0.9c3.5-5.5,5.3-12,5.3-18.5V12
		C95,8.1,91.9,5,88,5z M91,75.6c0,4.6-1,9.1-3,13.3c-2-4.1-3-8.7-3-13.3V25h6V75.6z M91,21h-6v-9c0-1.7,1.3-3,3-3s3,1.3,3,3V21z"/>
</g>
</svg>
