<?xml version="1.0" encoding="utf-8"?>
<!-- Generator: Adobe Illustrator 23.0.1, SVG Export Plug-In . SVG Version: 6.00 Build 0)  -->
<svg version="1.1" id="Layer_1" xmlns="http://www.w3.org/2000/svg" xmlns:xlink="http://www.w3.org/1999/xlink" x="0px" y="0px"
	 viewBox="0 0 100 100" style="enable-background:new 0 0 100 100;" xml:space="preserve">
<path d="M18.2,56.5c-0.8-0.7-0.9-2-0.1-2.8l10-11c0.4-0.4,0.9-0.6,1.4-0.7c0.5,0,1.1,0.2,1.5,0.6l4.5,4.5L41,41h-1.5
	c-1.1,0-2-0.9-2-2s0.9-2,2-2h6c1.1,0,2,0.9,2,2v6c0,1.1-0.9,2-2,2s-2-0.9-2-2v-0.8L37,51.3c-0.4,0.4-0.9,0.6-1.4,0.7
	c-0.5,0-1.1-0.2-1.5-0.6l-4.5-4.5L21,56.3C20.6,56.8,20,57,19.5,57C19,57,18.5,56.8,18.2,56.5z M69.5,21v13.1c2.1-1.9,4.9-3.1,8-3.1
	h10c1.1,0,2,0.9,2,2v2c0,6.6-5.4,12-12,12h-8v4.1c11.2,1,20,10.5,20,21.9c0,12.1-9.9,22-22,22c-4.9,0-9.4-1.6-13-4.3V91
	c0,2.2-1.8,4-4,4h-36c-2.2,0-4-1.8-4-4v-6c0-2.2,1.8-4,4-4h2v-6h-2c-2.2,0-4-1.8-4-4v-6c0-2.2,1.8-4,4-4h34.6
	c3.6-5.5,9.5-9.3,16.4-9.9V34h-8c-6.6,0-12-5.4-12-12v-2c0-1.1,0.9-2,2-2h10c3.1,0,5.9,1.2,8,3.1V17c0-6.6,5.4-12,12-12h10
	c1.1,0,2,0.9,2,2v2c0,6.6-5.4,12-12,12H69.5z M69.5,17h8c4.4,0,8-3.6,8-8h-8C73.1,9,69.5,12.6,69.5,17z M65.5,30c0-4.4-3.6-8-8-8h-8
	c0,4.4,3.6,8,8,8H65.5z M45.6,71c0.2-2.1,0.7-4.1,1.4-6H14.5v6H45.6z M45.6,75H20.5v6H47C46.3,79.1,45.8,77.1,45.6,75z M50.5,87
	c-0.5-0.6-1-1.3-1.4-2H14.5v6h36V87z M67.5,55c-9.9,0-18,8.1-18,18c0,9.9,8.1,18,18,18s18-8.1,18-18C85.5,63.1,77.4,55,67.5,55z
	 M69.5,43h8c4.4,0,8-3.6,8-8h-8C73.1,35,69.5,38.6,69.5,43z M68.5,71h-2c-1.1,0-2-0.9-2-2c0-1.1,0.9-2,2-2h2c1.1,0,2,0.9,2,2
	c0,1.1,0.9,2,2,2s2-0.9,2-2c0-3-2.2-5.4-5-5.9V61c0-1.1-0.9-2-2-2s-2,0.9-2,2v2.1c-2.8,0.5-5,2.9-5,5.9c0,3.3,2.7,6,6,6h2
	c1.1,0,2,0.9,2,2c0,1.1-0.9,2-2,2h-2c-1.1,0-2-0.9-2-2c0-1.1-0.9-2-2-2s-2,0.9-2,2c0,3,2.2,5.4,5,5.9V85c0,1.1,0.9,2,2,2s2-0.9,2-2
	v-2.1c2.8-0.5,5-2.9,5-5.9C74.5,73.7,71.8,71,68.5,71z"/>
</svg>
