<?xml version="1.0" encoding="UTF-8" standalone="no"?>
<svg
   xmlns:dc="http://purl.org/dc/elements/1.1/"
   xmlns:cc="http://creativecommons.org/ns#"
   xmlns:rdf="http://www.w3.org/1999/02/22-rdf-syntax-ns#"
   xmlns:svg="http://www.w3.org/2000/svg"
   xmlns="http://www.w3.org/2000/svg"
   xmlns:sodipodi="http://sodipodi.sourceforge.net/DTD/sodipodi-0.dtd"
   xmlns:inkscape="http://www.inkscape.org/namespaces/inkscape"
   version="1.1"
   id="Capa_1"
   x="0px"
   y="0px"
   viewBox="0 0 512.028 512.028"
   style="enable-background:new 0 0 512.028 512.028;"
   xml:space="preserve"
   sodipodi:docname="vip.svg"
   inkscape:version="1.0.2 (e86c870879, 2021-01-15)"><metadata
   id="metadata91"><rdf:RDF><cc:Work
       rdf:about=""><dc:format>image/svg+xml</dc:format><dc:type
         rdf:resource="http://purl.org/dc/dcmitype/StillImage" /></cc:Work></rdf:RDF></metadata><defs
   id="defs89" /><sodipodi:namedview
   pagecolor="#ffffff"
   bordercolor="#666666"
   borderopacity="1"
   objecttolerance="10"
   gridtolerance="10"
   guidetolerance="10"
   inkscape:pageopacity="0"
   inkscape:pageshadow="2"
   inkscape:window-width="1920"
   inkscape:window-height="1011"
   id="namedview87"
   showgrid="false"
   inkscape:zoom="1.396408"
   inkscape:cx="256.01401"
   inkscape:cy="256.01401"
   inkscape:window-x="0"
   inkscape:window-y="0"
   inkscape:window-maximized="1"
   inkscape:current-layer="Capa_1" />
<g
   id="g6"
   style="fill:#f2f2f2">
	<g
   id="g4"
   style="fill:#f2f2f2">
		<path
   d="M362.681,106.694H149.347c-29.397,0-53.333,23.915-53.333,53.333v298.667c0,29.419,23.936,53.333,53.333,53.333h213.333    c29.397,0,53.333-23.915,53.333-53.333V160.028C416.014,130.609,392.078,106.694,362.681,106.694z M394.681,458.694    c0,17.643-14.357,32-32,32H149.347c-17.643,0-32-14.357-32-32V160.028c0-17.643,14.357-32,32-32h213.333c17.643,0,32,14.357,32,32    V458.694z"
   id="path2"
   style="fill:#f2f2f2" />
	</g>
</g>
<g
   id="g12"
   style="fill:#f2f2f2">
	<g
   id="g10"
   style="fill:#f2f2f2">
		<path
   d="M215.928,299.014c-5.739-1.429-11.499,2.027-12.928,7.765l-10.987,43.947l-10.987-43.947    c-1.429-5.717-7.232-9.152-12.928-7.765c-5.717,1.429-9.195,7.211-7.765,12.928l21.333,85.333    c1.195,4.757,5.461,8.085,10.347,8.085c4.885,0,9.152-3.328,10.347-8.085l21.333-85.333    C225.123,306.246,221.646,300.444,215.928,299.014z"
   id="path8"
   style="fill:#f2f2f2" />
	</g>
</g>
<g
   id="g18"
   style="fill:#f2f2f2">
	<g
   id="g16"
   style="fill:#f2f2f2">
		<path
   d="M256.014,298.694c-5.888,0-10.667,4.779-10.667,10.667v85.333c0,5.888,4.779,10.667,10.667,10.667    c5.888,0,10.667-4.779,10.667-10.667v-85.333C266.681,303.473,261.902,298.694,256.014,298.694z"
   id="path14"
   style="fill:#f2f2f2" />
	</g>
</g>
<g
   id="g24"
   style="fill:#f2f2f2">
	<g
   id="g22"
   style="fill:#f2f2f2">
		<path
   d="M320.014,298.694h-21.333c-5.888,0-10.667,4.779-10.667,10.667v85.333c0,5.888,4.779,10.667,10.667,10.667    s10.667-4.779,10.667-10.667v-32h10.667c17.643,0,32-14.357,32-32C352.014,313.052,337.657,298.694,320.014,298.694z     M320.014,341.361h-10.667v-21.333h10.667c5.888,0,10.667,4.8,10.667,10.667C330.681,336.561,325.902,341.361,320.014,341.361z"
   id="path20"
   style="fill:#f2f2f2" />
	</g>
</g>
<g
   id="g30"
   style="fill:#f2f2f2">
	<g
   id="g28"
   style="fill:#f2f2f2">
		<path
   d="M362.681,256.028H149.347c-5.888,0-10.667,4.779-10.667,10.667s4.779,10.667,10.667,10.667h213.333    c5.888,0,10.667-4.779,10.667-10.667S368.569,256.028,362.681,256.028z"
   id="path26"
   style="fill:#f2f2f2" />
	</g>
</g>
<g
   id="g36"
   style="fill:#f2f2f2">
	<g
   id="g34"
   style="fill:#f2f2f2">
		<path
   d="M362.681,426.694H149.347c-5.888,0-10.667,4.779-10.667,10.667c0,5.888,4.779,10.667,10.667,10.667h213.333    c5.888,0,10.667-4.779,10.667-10.667C373.347,431.473,368.569,426.694,362.681,426.694z"
   id="path32"
   style="fill:#f2f2f2" />
	</g>
</g>
<g
   id="g42"
   style="fill:#f2f2f2">
	<g
   id="g40"
   style="fill:#f2f2f2">
		<path
   d="M256.014,149.361c-17.643,0-32,14.357-32,32c0,17.643,14.357,32,32,32c17.643,0,32-14.357,32-32    C288.014,163.718,273.657,149.361,256.014,149.361z M256.014,192.028c-5.888,0-10.667-4.8-10.667-10.667    c0-5.867,4.779-10.667,10.667-10.667c5.888,0,10.667,4.8,10.667,10.667C266.681,187.228,261.902,192.028,256.014,192.028z"
   id="path38"
   style="fill:#f2f2f2" />
	</g>
</g>
<g
   id="g48"
   style="fill:#f2f2f2">
	<g
   id="g46"
   style="fill:#f2f2f2">
		<path
   d="M346.126,1.137c-5.269-2.667-11.669-0.469-14.315,4.779l-85.333,170.667c-2.624,5.269-0.491,11.669,4.779,14.315    c1.536,0.768,3.157,1.131,4.757,1.131c3.904,0,7.659-2.176,9.557-5.909l85.333-170.667    C353.529,10.182,351.395,3.782,346.126,1.137z"
   id="path44"
   style="fill:#f2f2f2" />
	</g>
</g>
<g
   id="g54"
   style="fill:#f2f2f2">
	<g
   id="g52"
   style="fill:#f2f2f2">
		<path
   d="M233.55,112.582L180.217,5.916c-2.624-5.248-9.045-7.424-14.315-4.757c-5.269,2.645-7.403,9.045-4.779,14.315    l53.333,106.667c1.877,3.712,5.632,5.888,9.557,5.888c1.621,0,3.243-0.363,4.757-1.131    C234.04,124.252,236.195,117.852,233.55,112.582z"
   id="path50"
   style="fill:#f2f2f2" />
	</g>
</g>
<g
   id="g56">
</g>
<g
   id="g58">
</g>
<g
   id="g60">
</g>
<g
   id="g62">
</g>
<g
   id="g64">
</g>
<g
   id="g66">
</g>
<g
   id="g68">
</g>
<g
   id="g70">
</g>
<g
   id="g72">
</g>
<g
   id="g74">
</g>
<g
   id="g76">
</g>
<g
   id="g78">
</g>
<g
   id="g80">
</g>
<g
   id="g82">
</g>
<g
   id="g84">
</g>
</svg>
